<svg xmlns="http://www.w3.org/2000/svg" width="21" height="29.3" viewBox="0 0 21 29.3"><g stroke="#000" stroke-miterlimit="10"><path fill="#FFF" d="M20.5 28.8H.5V.5h14.9l5.1 5.1z"/><path fill="none" d="M20.5 5.6h-5.1V.5"/></g><path fill="none" stroke="#000" stroke-miterlimit="10" d="M3.4 23.6h14.2M3.4 21.4h14.2M3.4 19.1h14.2M3.4 16.9h14.2M3.4 14.6h14.2M3.4 12.4h14.2M3.4 10.1h14.2M8.8 7.9h8.8"/><path d="M5.1 3.4h.7l1.6 4.3.4.1v.3H6v-.3h.4l.1-.1L6 6.5H4.5l-.4 1.1.1.1h.4V8H3.1v-.2l.4-.1 1.6-4.3zm.2 1l-.6 1.7h1.2l-.6-1.7z"/></svg>