<svg xmlns="http://www.w3.org/2000/svg" width="31" height="27" viewBox="0 0 31 27"><g fill="none" stroke="#FFF" stroke-miterlimit="10"><path d="M30.5 24v2.5H28"/><path stroke-dasharray="5,5" d="M23 26.5H6"/><path d="M3 26.5H.5V24"/><path stroke-dasharray="5,5" d="M.5 19v-7"/><path d="M.5 9V6.5H3"/><path stroke-dasharray="5,5" d="M8 6.5h18"/><path d="M28 6.5h2.5V9"/><path stroke-dasharray="5,5" d="M30.5 14v8"/></g><path fill="#FFF" stroke="#000" stroke-miterlimit="10" d="M4.5.5h15v13h-15z"/><circle fill="none" stroke="#000" stroke-miterlimit="10" cx="8.2" cy="3.5" r="2"/><path fill="none" stroke="#000" stroke-miterlimit="10" d="M15.6 13.7l-5.4-5.4-5.3 5.3M20.9 10.8l-5.3-5.3-4 4.1"/><path fill="#FFF" stroke="#FFF" stroke-miterlimit="10" d="M23.12 12.514l3.253 3.252-.495.495-3.253-3.25z"/><path fill="#FFF" d="M19.2 9.1l3 7.2.9-3.3 3.3-.9"/></svg>