<svg xmlns="http://www.w3.org/2000/svg" width="30" height="20.9" viewBox="0 0 30 20.9"><path d="M30 2.1V.7h-3.9v2.8L21.8.1c-.1-.1-.3-.1-.5-.1l-6.1.5-.9.1-6.1 1c-.1 0-.2 0-.3.1L5.2 3.6H3.9V.7H0v1.4h2.5v13.2H0v1.4h3.9v-2.3l.1.1c.4.5 1 .7 1.7.7h.2c0 .6.3 1.2.7 1.6.5.5 1.1.7 1.7.7h.5c.1.5.3 1 .7 1.4.5.5 1.1.7 1.7.7.3 0 .6 0 .8-.1.1.3.3.6.5.8.4.4.9.6 1.5.6s1.1-.2 1.5-.6l1.6-1.6.4.4c.4.4.9.6 1.5.6s1.1-.2 1.5-.6c.2-.2.4-.5.5-.8.3.1.6.2.8.2.6 0 1.3-.2 1.7-.7.4-.4.6-.9.7-1.4h.4c.6 0 1.1-.2 1.6-.6v.8H30v-1.4h-2.5V2.1H30z"/><path fill="#FFF" d="M25.3 13.2l-2.6-2.6-3.5-3.5-3.1-1c-2.1 1.3-5.5.8-6.7-.6-.1-.1-.2-.3-.2-.5s.1-.4.3-.5l2.7-2.2-3.5.7-2.9 1.9c-.1 0-.3.1-.4.1H3.9v6.2l.1-.1.8-.8c.5-.5 1.1-.7 1.7-.7.6 0 1.3.3 1.7.7.3.3.5.6.6.9l.4-.4c.5-.5 1.1-.7 1.7-.7.6 0 1.3.3 1.7.7.4.4.6.9.7 1.4h.5c.6 0 1.3.3 1.7.7.5.5.7 1.1.7 1.7.5 0 .9.2 1.2.5l-.1-.1c-.3-.3-.3-.7 0-1 .3-.3.7-.3 1 0l.1.1 2.6 2.6c.2.2.5.3.7.3.3 0 .5-.1.7-.3.2-.2.3-.5.3-.7 0-.3-.1-.5-.3-.7L20.1 13l-.3-.3c-.3-.3-.3-.7 0-1 .3-.3.7-.3 1 0l2.6 2.6.1.1.3.3c.2.2.5.3.7.3.3 0 .5-.1.7-.3.2-.2.3-.5.3-.7.1-.3 0-.6-.2-.8zM19.4 17.2l-1.8-1.8c.3.4.5.8.5 1.3 0 .3-.1.7-.2 1l.5.5c.1.1.3.2.5.2s.4-.1.5-.2c.1-.1.2-.3.2-.5.1-.2 0-.4-.2-.5zM16.6 16.2c-.2-.1-.4-.2-.6-.2-.2 0-.4.1-.5.2l-.1.1-2.1 2.1c-.1.1-.2.3-.2.5s.1.4.2.5c.1.1.3.2.5.2s.4-.1.5-.2l2.1-2.1c.1-.1.2-.3.2-.5s.1-.5 0-.6zM14.5 13.8c-.2-.2-.5-.3-.7-.3-.3 0-.5.1-.7.3l-2.6 2.6c-.2.2-.3.5-.3.7 0 .3.1.5.3.7.2.2.5.3.7.3.3 0 .5-.1.7-.3l.5-.5.1-.1 2.1-2.1c.2-.2.3-.4.3-.7-.1-.1-.2-.4-.4-.6zM11.6 11.7c-.2-.2-.5-.3-.7-.3-.3 0-.5.1-.7.3l-2.6 2.6c-.2.2-.3.5-.3.7 0 .3.1.5.3.7.2.2.5.3.7.3.3 0 .5-.1.7-.3l2.6-2.6c.4-.3.4-.9 0-1.4zM7.3 11.2c-.2-.2-.5-.3-.7-.3-.3 0-.5.1-.7.3l-1 .8c-.2.2-.3.5-.3.7 0 .3.1.5.3.7.2.2.5.3.7.3.3 0 .5-.1.7-.3l.8-.8c.6-.3.6-1 .2-1.4zM21.2 1.4l-6 .5H15l-4 3.2c1.2.5 3.3.6 4.6-.3.2-.1.4-.2.6-.1l3.5 1.2c.2 0 .3.1.4.1l6.1 6.1V5.2l-5-3.8z"/><g><path fill="#FFF" d="M30 2.1V.7h-3.9v15.9H30v-1.3h-2.5V2.1"/></g><g><path fill="#FFF" d="M0 .7v1.4h2.5v13.2H0v1.3h3.9V.7"/></g></svg>